# xmcd
#
# Track frame offsets: 
#        150
#        20688
#        38008
#        58746
#
# Disc length: 1014 seconds
#
# Revision: 0
# Processed by: cddbd v1.5.2PL0 Copyright (c) Steve Scherf et al.
# Submitted via: ExactAudioCopy v1.0b3
#
DISCID=2d03f404
DTITLE=Kevin Rogers - Loi Ve Xom Nho
DYEAR=2014
DGENRE=
TTITLE0=Loi ve xom nho
TTITLE1=Sau dong
TTITLE2=hoa tau - Loi ve xom nho
TTITLE3=hoa tau - Sau dong
EXTD=
EXTT0=
EXTT1=
EXTT2=
EXTT3=
PLAYORDER=
